<?xml version="1.0" encoding="utf-8"?>
<!-- Generator: Adobe Illustrator 19.0.0, SVG Export Plug-In . SVG Version: 6.00 Build 0)  -->
<svg version="1.1" id="Layer_1" xmlns="http://www.w3.org/2000/svg" xmlns:xlink="http://www.w3.org/1999/xlink" x="0px" y="0px"
	 viewBox="0 0 100 100" style="enable-background:new 0 0 100 100;" xml:space="preserve">
<style type="text/css">
	.st0{fill:none;stroke:#E72620;stroke-width:5;stroke-miterlimit:10;}
	.st1{fill:none;stroke:#E72620;stroke-width:5;stroke-linejoin:round;stroke-miterlimit:10;}
</style>
<path id="XMLID_1_" class="st0" d="M-86.2-23.4l11.6,23.6c0.5,1.1,1.6,1.8,2.7,2l26,3.8c3,0.4,4.2,4.1,2,6.2l-18.8,18.3
	c-0.9,0.8-1.3,2-1.1,3.2l4.4,25.9c0.5,3-2.6,5.3-5.3,3.8l-23.3-12.2c-1.1-0.6-2.3-0.6-3.4,0l-23.3,12.2c-2.7,1.4-5.8-0.9-5.3-3.8
	l4.4-25.9c0.2-1.2-0.2-2.4-1.1-3.2l-18.8-18.3c-2.2-2.1-1-5.8,2-6.2l26-3.8c1.2-0.2,2.2-0.9,2.7-2l11.6-23.6
	C-91.4-26.2-87.5-26.2-86.2-23.4z"/>
<path id="XMLID_6_" class="st1" d="M86.7,48.9L86.7,48.9c5.7,0,10.3-4.6,10.3-10.3s-4.6-10.3-10.3-10.3c-5.7,0-10.3,4.6-10.3,10.3
	H23.8c0-5.7-4.6-10.3-10.3-10.3c-5.7,0-10.3,4.6-10.3,10.3s4.6,10.3,10.3,10.3v0c-5.7,0-10.3,4.6-10.3,10.3
	c0,5.7,4.6,10.3,10.3,10.3s10.3-4.6,10.3-10.3h52.6c0,5.7,4.6,10.3,10.3,10.3S97,64.9,97,59.2C97,53.6,92.4,48.9,86.7,48.9z"/>
</svg>
