<?xml version="1.0" encoding="utf-8"?>
<!-- Generator: Adobe Illustrator 19.0.0, SVG Export Plug-In . SVG Version: 6.00 Build 0)  -->
<svg version="1.1" id="Layer_1" xmlns="http://www.w3.org/2000/svg" xmlns:xlink="http://www.w3.org/1999/xlink" x="0px" y="0px"
	 viewBox="0 0 100 100" style="enable-background:new 0 0 100 100;" xml:space="preserve">
<style type="text/css">
	.st0{fill:none;stroke:#E72620;stroke-width:5;stroke-miterlimit:10;}
	.st1{fill:none;stroke:#CCCCCC;stroke-width:5;stroke-linejoin:round;stroke-miterlimit:10;}
	.st2{fill:#E72620;}
</style>
<path id="XMLID_1_" class="st0" d="M-50.5-10.6l11.6,23.6c0.5,1.1,1.6,1.8,2.7,2l26,3.8c3,0.4,4.2,4.1,2,6.2l-18.8,18.3
	c-0.9,0.8-1.3,2-1.1,3.2l4.4,25.9c0.5,3-2.6,5.3-5.3,3.8L-52.1,64c-1.1-0.6-2.3-0.6-3.4,0l-23.3,12.2c-2.7,1.4-5.8-0.9-5.3-3.8
	l4.4-25.9c0.2-1.2-0.2-2.4-1.1-3.2l-18.8-18.3c-2.2-2.1-1-5.8,2-6.2l26-3.8c1.2-0.2,2.2-0.9,2.7-2l11.6-23.6
	C-55.7-13.3-51.9-13.3-50.5-10.6z"/>
<path id="XMLID_6_" class="st1" d="M-23-13.4L-23-13.4c5.7,0,10.3-4.6,10.3-10.3S-17.3-34-23-34c-5.7,0-10.3,4.6-10.3,10.3h-52.6
	c0-5.7-4.6-10.3-10.3-10.3c-5.7,0-10.3,4.6-10.3,10.3s4.6,10.3,10.3,10.3v0c-5.7,0-10.3,4.6-10.3,10.3c0,5.7,4.6,10.3,10.3,10.3
	s10.3-4.6,10.3-10.3h52.6c0,5.7,4.6,10.3,10.3,10.3s10.3-4.6,10.3-10.3C-12.7-8.7-17.3-13.4-23-13.4z"/>
<g id="XMLID_3_">
	<g id="XMLID_9_">
		<path id="XMLID_37_" class="st2" d="M-61.7,49.5c0.6,0,1.2,0,1.9,0.1c1.3,0.1,2.4,0.4,3.4,0.9c0.9,0.4,1.8,1,2.6,1.8
			c1.2,1.1,2.3,2.6,3,3.7c0.7,1,1.3,2,2,3.1c0.4,0.6,0.7,1.1,1.1,1.7c1.7,2.6,3.1,4.5,4.6,6.2c1.2,1.5,2.7,2.9,4.4,4.4
			c1.9,1.7,3.5,3.6,4.8,5.6c1,1.6,1.7,3.2,2.1,4.9c0.3,1.2,0.4,2.4,0.4,3.5c-0.1,2.2-0.8,4-2,5.6c-0.8,1-1.9,1.9-3.2,2.6
			c-1,0.5-2,0.9-3.1,1c-0.1,0-0.2,0-0.3,0l-0.1,0c-0.1,0-0.3,0-0.4,0h-0.9c-0.1,0-0.3,0-0.4,0c-0.9-0.1-1.8-0.2-3.1-0.5
			c-1.3-0.3-2.6-0.6-3.9-1l-1.1-0.3c-1.5-0.4-3.3-0.9-5.2-1.3c-1.7-0.3-3.3-0.5-4.8-0.6c-0.6,0-1.1,0-1.6,0c-0.8,0-1.6,0-2.4,0.1
			c-2.5,0.2-4.8,0.8-6.9,1.3c-0.7,0.2-1.5,0.4-2.2,0.6c-0.9,0.3-1.9,0.5-2.8,0.7c-1.5,0.4-2.7,0.6-3.8,0.8c-0.8,0.1-1.5,0.2-2.2,0.2
			c-0.1,0-0.3,0-0.4,0c-2.1-0.1-3.7-0.8-5.3-2.2c-1.3-1.2-2.2-2.6-2.7-4.2c-0.3-0.8-0.4-1.7-0.5-2.7c0-0.7,0-1.5,0.1-2.3
			c0.2-1.4,0.6-2.7,1.1-4.1c0.9-2.1,2.2-4.1,4-6c0.6-0.7,1.4-1.4,2.3-2.2c1.8-1.6,3.6-3.5,5.5-5.8c1.5-1.9,2.8-3.8,4.1-5.6l0,0
			l0.1-0.2c1.2-1.7,2.3-3.3,3.6-4.8c1-1.2,1.9-2.2,2.8-2.9c0.9-0.8,1.8-1.3,2.8-1.7c0.6-0.2,1.2-0.4,1.8-0.4
			C-62.3,49.5-62,49.5-61.7,49.5 M-61.7,44.5c-0.5,0-0.9,0-1.4,0.1c-1.1,0.1-2.1,0.3-3.1,0.7c-1.6,0.6-3,1.5-4.3,2.6
			c-1.3,1.1-2.4,2.3-3.4,3.6c-1.4,1.7-2.6,3.5-3.9,5.3c-1.3,1.8-2.6,3.7-4,5.4c-1.5,1.9-3,3.6-4.8,5.2c-0.9,0.8-1.8,1.7-2.7,2.6
			c-2,2.2-3.7,4.7-4.9,7.4c-0.7,1.7-1.3,3.5-1.5,5.4c-0.1,1.1-0.2,2.2-0.1,3.2c0.1,1.3,0.3,2.6,0.7,3.9c0.8,2.5,2.2,4.6,4.1,6.3
			c2.4,2.2,5.2,3.4,8.5,3.5c0.2,0,0.4,0,0.6,0c0.9,0,1.9-0.1,2.8-0.2c1.5-0.2,2.9-0.5,4.3-0.9c1.7-0.4,3.4-0.9,5.1-1.4
			c2-0.5,4-1,6.1-1.2C-63,96-62.3,96-61.7,96c0.5,0,0.9,0,1.4,0c1.4,0.1,2.8,0.3,4.1,0.5c1.6,0.3,3.2,0.7,4.8,1.2
			c1.8,0.5,3.5,1,5.3,1.4c1.3,0.3,2.6,0.5,4,0.6c0,0,0.1,0,0.1,0c0.7,0,1.3,0,2,0c0,0,0.1,0,0.1,0c0,0,0,0,0,0c0,0,0,0,0,0
			c0.2,0,0.5,0,0.7-0.1c1.7-0.2,3.3-0.7,4.8-1.6c1.8-1,3.4-2.2,4.7-3.8c2-2.5,3-5.4,3.2-8.5c0.1-1.7-0.1-3.3-0.5-4.9
			c-0.6-2.2-1.5-4.3-2.7-6.3c-1.6-2.5-3.5-4.8-5.7-6.8c-1.4-1.2-2.7-2.5-3.9-3.9c-1.5-1.8-2.9-3.7-4.2-5.7c-1.1-1.6-2.1-3.3-3.2-4.9
			c-1.1-1.6-2.3-3.2-3.7-4.5c-1.2-1.1-2.5-2-3.9-2.7c-1.6-0.7-3.2-1.1-4.9-1.3C-60.1,44.6-60.9,44.5-61.7,44.5L-61.7,44.5z"/>
	</g>
	<g id="XMLID_8_">
		<path id="XMLID_33_" class="st2" d="M-42.8,14.2c0.2,0,0.4,0,0.5,0.1c0.9,0.1,1.6,0.5,2.3,1.2c0.8,0.7,1.4,1.7,1.9,3
			c0.4,1,0.6,2.1,0.8,3.3c0.1,1.2,0.1,2.5-0.1,3.7c-0.3,1.9-0.8,3.7-1.6,5.4c-0.7,1.5-1.6,2.7-2.7,3.8c-1,0.9-1.9,1.6-3,2
			c-0.6,0.2-1.2,0.3-1.7,0.3c-0.1,0-0.2,0-0.3,0c-1-0.1-1.8-0.4-2.6-1.1c-0.6-0.5-1.2-1.2-1.6-2.1c-0.5-1.1-0.9-2.2-1.1-3.6
			c-0.1-0.9-0.2-1.8-0.2-2.7c0.1-1.7,0.4-3.4,0.9-5c0.6-1.9,1.5-3.4,2.6-4.8c1-1.2,2-2.1,3.1-2.7c0.7-0.4,1.3-0.6,2-0.7l0.1,0
			c0,0,0.1,0,0.1,0c0.1,0,0.2,0,0.4,0H-42.8 M-42.2,9.2c-0.4,0-0.9,0-1.3,0c0,0-0.1,0-0.1,0c0,0,0,0,0,0c0,0,0,0,0,0
			c-0.2,0-0.4,0-0.6,0.1c-1.3,0.2-2.5,0.6-3.7,1.3c-1.8,1-3.3,2.3-4.6,3.9c-1.5,1.9-2.6,4.1-3.4,6.4c-0.7,2.1-1.1,4.2-1.1,6.4
			c0,1.2,0,2.4,0.2,3.6c0.3,1.8,0.8,3.5,1.6,5.1c0.7,1.4,1.6,2.6,2.8,3.6c1.6,1.4,3.4,2.2,5.6,2.3c0.2,0,0.4,0,0.6,0
			c1.2,0,2.3-0.2,3.5-0.7c1.8-0.7,3.4-1.7,4.7-3.1c1.5-1.5,2.7-3.2,3.7-5.1c1.1-2.2,1.8-4.5,2.1-6.9c0.2-1.6,0.3-3.2,0.1-4.9
			c-0.2-1.6-0.5-3.1-1.1-4.6c-0.7-1.9-1.7-3.5-3.2-4.9c-1.5-1.3-3.2-2.2-5.2-2.5C-41.9,9.2-42.1,9.2-42.2,9.2L-42.2,9.2z"/>
	</g>
	<g id="XMLID_7_">
		<path id="XMLID_29_" class="st2" d="M-100.2,38.8c0.7,0,1.4,0.2,2.3,0.6c0.8,0.4,1.6,0.9,2.3,1.6c1.9,1.8,3.1,4,3.7,6.7
			c0.2,0.8,0.3,1.5,0.3,2.4c0,1.5-0.2,2.8-0.8,4c-0.3,0.6-0.6,1.1-1,1.5c-0.6,0.6-1.2,0.9-1.9,1c-0.3,0-0.5,0.1-0.7,0.1
			c-0.6,0-1.3-0.2-2-0.5c-0.9-0.4-1.8-1-2.6-1.8c-1-0.9-1.8-2.1-2.5-3.4c-0.7-1.3-1.1-2.6-1.3-4c0-0.2-0.1-0.5-0.1-0.8l0-0.3l0-0.2
			l0-0.1c0,0,0-0.1,0-0.1v-0.6c0-0.3,0.1-0.5,0.1-0.6c0.1-0.9,0.2-1.6,0.5-2.4c0.3-0.8,0.7-1.4,1.2-1.9c0.6-0.6,1.2-0.9,2-1.1
			C-100.7,38.8-100.4,38.8-100.2,38.8 M-100.2,33.8c-0.5,0-1,0-1.6,0.1c-1.8,0.3-3.4,1.2-4.7,2.5c-1,1.1-1.8,2.3-2.3,3.7
			c-0.5,1.2-0.7,2.5-0.8,3.8c0,0.1,0,0.3-0.1,0.4c0,0.5,0,1,0,1.5c0,0.3,0,0.5,0.1,0.8c0,0.4,0.1,0.8,0.1,1.2
			c0.3,1.9,0.9,3.8,1.8,5.5c0.9,1.8,2,3.4,3.5,4.7c1.2,1.2,2.6,2.1,4.2,2.8c1.3,0.5,2.6,0.8,4,0.8c0.5,0,1.1,0,1.7-0.2
			c1.8-0.3,3.3-1.2,4.6-2.4c0.8-0.9,1.5-1.8,2-2.9c0.9-1.9,1.2-4,1.2-6.1c0-1.1-0.1-2.3-0.4-3.4c-0.8-3.6-2.5-6.7-5.1-9.3
			c-1.1-1.1-2.3-1.9-3.7-2.6C-97.3,34.2-98.7,33.8-100.2,33.8L-100.2,33.8z"/>
	</g>
	<g id="XMLID_5_">
		<path id="XMLID_25_" class="st2" d="M-78.2,14.5c0.5,0,1.1,0.1,1.7,0.3c0.8,0.3,1.6,0.8,2.3,1.5c1.3,1.2,2.3,2.7,3.1,4.7
			c0.5,1.2,0.8,2.5,1,3.8c0.1,0.7,0.2,1.4,0.2,2.1c0,0.8,0,1.4-0.1,1.9c-0.2,2-0.8,3.7-1.7,5.1c-0.6,0.9-1.3,1.6-2.1,2
			c-0.5,0.3-1.1,0.5-1.7,0.5c-0.1,0-0.1,0-0.2,0c-0.7,0-1.3-0.2-2-0.5c-0.7-0.3-1.4-0.8-2.1-1.4c-1.3-1.2-2.3-2.8-3.1-4.7
			c-0.5-1.2-0.8-2.4-1-3.8c0-0.2-0.1-0.4-0.1-0.6c0-0.5-0.1-1-0.1-1.5c0-1.9,0.3-3.6,1-5.2c0.4-1,0.9-1.8,1.6-2.5
			c0.7-0.8,1.4-1.2,2.3-1.4C-78.8,14.5-78.5,14.5-78.2,14.5 M-78.2,9.5c-0.7,0-1.4,0.1-2.2,0.3c-1.9,0.5-3.4,1.5-4.7,2.9
			c-1.1,1.2-1.9,2.5-2.5,4c-0.9,2.3-1.3,4.6-1.3,7.1c0,0.7,0,1.3,0.1,2c0,0.3,0.1,0.6,0.1,0.9c0.2,1.7,0.7,3.4,1.3,5
			c1,2.5,2.3,4.7,4.3,6.5c1,1,2.1,1.8,3.4,2.4c1.3,0.6,2.7,0.9,4.1,0.9c0.1,0,0.3,0,0.4,0c1.4-0.1,2.7-0.4,3.9-1.1
			c1.6-0.9,2.9-2.1,3.9-3.7c1.4-2.2,2.2-4.6,2.5-7.2c0.1-0.9,0.1-1.7,0.1-2.6c0-0.9-0.1-1.8-0.2-2.7c-0.3-1.7-0.7-3.4-1.3-5
			c-1-2.5-2.4-4.6-4.3-6.4c-1.2-1.1-2.4-1.9-3.9-2.5C-75.8,9.7-77,9.5-78.2,9.5L-78.2,9.5z"/>
	</g>
	<g id="XMLID_4_">
		<path id="XMLID_21_" class="st2" d="M-20.3,38.9c0.6,0,1.1,0.1,1.6,0.3c0.9,0.4,1.5,1,2,1.9c0.4,0.6,0.6,1.4,0.7,2.2
			c0,0.2,0.1,0.5,0.1,0.8v1.5c-0.1,1.5-0.5,2.9-1.2,4.5c-0.7,1.5-1.5,2.7-2.6,3.8c-1.1,1.1-2.3,1.9-3.6,2.4c-0.7,0.3-1.4,0.4-2,0.4
			c-0.1,0-0.2,0-0.3,0c-1-0.1-1.7-0.4-2.4-1c-0.7-0.6-1.1-1.4-1.5-2.6c-0.3-1-0.4-2-0.3-3c0.2-3.1,1.4-5.8,3.6-8.2
			c1-1.1,2.1-1.8,3.3-2.4c0.8-0.3,1.5-0.5,2.2-0.6C-20.5,38.9-20.4,38.9-20.3,38.9 M-20.3,33.9c-0.2,0-0.4,0-0.6,0
			c-1.4,0.1-2.7,0.4-4,1c-1.9,0.8-3.6,2.1-5,3.6c-2.9,3.2-4.6,6.9-4.9,11.2c-0.1,1.6,0,3.2,0.5,4.7c0.5,1.9,1.4,3.6,2.9,4.9
			c1.5,1.4,3.4,2.2,5.4,2.3c0.2,0,0.4,0,0.7,0c1.3,0,2.5-0.2,3.7-0.7c2.1-0.8,3.9-2,5.5-3.6c1.5-1.5,2.7-3.3,3.7-5.3
			c0.9-2,1.5-4.2,1.6-6.5c0-0.5,0-1.1,0-1.6c0-0.5-0.1-1-0.2-1.5c-0.2-1.4-0.6-2.6-1.3-3.8c-1-1.8-2.4-3.2-4.3-4
			C-17.8,34.1-19,33.9-20.3,33.9L-20.3,33.9z"/>
	</g>
</g>
<g id="XMLID_12_">
	<path id="XMLID_13_" class="st0" d="M3,55.4c0-3.6,0-6.9,0-10.5c0-0.3,0.5-0.7,0.8-0.8c3-1.1,5.9-2.1,8.9-3.2
		c0.4-0.2,0.9-0.7,1.1-1.1c1.2-2.7,2.3-5.4,3.4-8.2c0.2-0.4,0.2-1,0-1.3c-1.3-2.9-2.7-5.7-4.1-8.5c-0.4-0.8-0.4-1.3,0.7-2
		c2.2-1.6,4.1-3.5,5.8-5.7c0.8-1,1.2-1.2,2-0.8c2.8,1.4,5.6,2.6,8.3,4c0.7,0.4,1.2,0.3,2,0c2.6-1.2,5.2-2.2,7.8-3.2
		c0.7-0.3,1.1-0.5,1.3-1.2c1-2.9,2.1-5.9,3.1-8.8c0.2-0.7,0.5-0.8,1.2-0.8c3.2,0,6.4,0,9.6,0c0.7,0,1,0.2,1.2,0.9
		c1,2.9,2.1,5.9,3.1,8.8c0.2,0.6,0.6,0.9,1.2,1.2c2.7,1,5.3,2.2,8,3.3c0.6,0.3,1,0.3,1.7,0c2.8-1.4,5.6-2.6,8.3-4
		c0.9-0.4,1.4-0.3,2.3,0.9c1.5,2.1,3.3,3.9,5.4,5.4c1.2,0.9,1.4,1.4,0.9,2.3c-1.3,2.7-2.6,5.5-3.9,8.2c-0.3,0.6-0.3,1.2,0,1.8
		c1.2,2.7,2.3,5.4,3.4,8.2c0.2,0.5,0.6,0.9,1.1,1c3.1,1.1,6.1,2.2,9.2,3.3c0.3,0.1,0.5,0.4,0.5,0.7c0,3.5,0,6.9,0,10.3
		c0,0.3-0.5,0.7-0.8,0.8c-3,1.1-5.9,2.1-8.9,3.2c-0.4,0.2-0.9,0.7-1,1.1c-1.2,2.7-2.3,5.5-3.5,8.2c-0.2,0.5-0.2,1,0,1.4
		c1.4,2.8,2.7,5.6,4,8.4c0.4,0.9,0.4,0.9-0.9,2.2c-1.8,1.8-3.2,3-5.3,5.3c-1,1.1-1.3,1.4-2.2,1c-2.8-1.4-5.6-2.6-8.3-4
		c-0.6-0.3-1.1-0.3-1.8,0c-2.6,1.2-5.2,2.3-7.9,3.3c-0.7,0.3-1.1,0.5-1.3,1.2c-1,2.9-2.1,5.9-3.1,8.8c-0.2,0.7-0.5,0.8-1.2,0.8
		c-3.2,0-6.4,0-9.6,0c-0.7,0-1-0.2-1.2-0.9c-1-2.9-2.1-5.9-3.1-8.8c-0.2-0.6-0.6-0.9-1.2-1.2c-2.7-1.1-5.4-2.2-8.1-3.3
		c-0.4-0.2-1-0.2-1.4,0c-2.8,1.3-5.7,2.6-8.4,4c-1,0.5-1.5,0.3-2.6-1.3c-1.2-1.8-2.8-3.4-4.6-4.7c-1.6-1.1-1.9-1.5-1.5-2.5
		c1.4-2.8,2.7-5.6,4-8.4c0.3-0.7,0.2-1.1-0.1-1.8c-1.1-2.6-2.2-5.2-3.2-7.8c-0.3-0.7-0.6-1.1-1.3-1.4c-2.9-1-5.9-2.1-8.8-3.1
		C3.5,55.9,3.1,55.8,3,55.4z M50,31.2c-10.4,0-18.8,8.3-18.8,18.7c0,10.5,8.3,18.9,18.7,18.9c10.4,0,18.8-8.3,18.8-18.7
		C68.8,39.6,60.4,31.2,50,31.2z"/>
</g>
</svg>
