<?xml version="1.0" encoding="utf-8"?>
<!-- Generator: Adobe Illustrator 19.0.0, SVG Export Plug-In . SVG Version: 6.00 Build 0)  -->
<svg version="1.1" id="Layer_1" xmlns="http://www.w3.org/2000/svg" xmlns:xlink="http://www.w3.org/1999/xlink" x="0px" y="0px"
	 viewBox="0 0 100 100" style="enable-background:new 0 0 100 100;" xml:space="preserve">
<style type="text/css">
	.st0{fill:#FFFFFF;stroke:#CCCCCC;stroke-width:5;stroke-miterlimit:10;}
</style>
<path id="XMLID_1_" class="st0" d="M53.3,5.5L64.9,29c0.5,1.1,1.6,1.8,2.7,2l26,3.8c3,0.4,4.2,4.1,2,6.2L76.9,59.4
	c-0.9,0.8-1.3,2-1.1,3.2l4.4,25.9c0.5,3-2.6,5.3-5.3,3.8L51.7,80.1c-1.1-0.6-2.3-0.6-3.4,0L25,92.3c-2.7,1.4-5.8-0.9-5.3-3.8
	l4.4-25.9c0.2-1.2-0.2-2.4-1.1-3.2L4.3,41c-2.2-2.1-1-5.8,2-6.2l26-3.8c1.2-0.2,2.2-0.9,2.7-2L46.7,5.5C48.1,2.7,51.9,2.7,53.3,5.5z
	"/>
</svg>
