<?xml version="1.0" encoding="utf-8"?>
<!-- Generator: Adobe Illustrator 19.0.0, SVG Export Plug-In . SVG Version: 6.00 Build 0)  -->
<svg version="1.1" id="Layer_1" xmlns="http://www.w3.org/2000/svg" xmlns:xlink="http://www.w3.org/1999/xlink" x="0px" y="0px"
	 viewBox="0 0 98.8 90.6" style="enable-background:new 0 0 98.8 90.6;" xml:space="preserve">
<style type="text/css">
	.st0{fill:#222222;}
</style>
<g>
	<path class="st0" d="M67.6,90.6c0,0-0.1,0-0.1,0c-1.3-0.1-2.7-0.3-4-0.6c-1.8-0.4-3.5-0.9-5.3-1.4c-1.6-0.4-3.2-0.9-4.8-1.2
		c-1.4-0.3-2.7-0.5-4.1-0.5c-1.1-0.1-2.2-0.1-3.3,0.1C44,87.1,42,87.6,40,88.1c-1.7,0.4-3.4,0.9-5.1,1.4c-1.4,0.4-2.9,0.7-4.3,0.9
		c-1.1,0.2-2.3,0.2-3.4,0.2c-3.3-0.1-6.1-1.3-8.5-3.5c-1.9-1.8-3.3-3.9-4.1-6.3c-0.4-1.3-0.6-2.6-0.7-3.9c-0.1-1.1,0-2.2,0.1-3.2
		c0.2-1.9,0.8-3.7,1.5-5.4c1.2-2.8,2.8-5.2,4.9-7.4c0.8-0.9,1.7-1.8,2.7-2.6c1.8-1.6,3.4-3.3,4.8-5.2c1.4-1.8,2.7-3.6,4-5.4
		c1.3-1.8,2.5-3.6,3.9-5.3c1.1-1.3,2.2-2.5,3.4-3.6c1.3-1.1,2.7-2,4.3-2.6c1-0.4,2-0.6,3.1-0.7c1.3-0.1,2.5-0.1,3.8,0.1
		c1.7,0.2,3.3,0.6,4.9,1.3c1.5,0.7,2.8,1.6,3.9,2.7c1.4,1.3,2.6,2.9,3.7,4.5c1.1,1.6,2.1,3.3,3.2,4.9c1.3,2,2.6,3.9,4.2,5.7
		c1.2,1.4,2.5,2.7,3.9,3.9c2.2,2,4.2,4.2,5.7,6.8c1.2,2,2.1,4.1,2.7,6.3c0.4,1.6,0.6,3.3,0.5,4.9C83,79.7,82,82.6,80,85.1
		c-1.3,1.6-2.9,2.8-4.7,3.8c-1.5,0.8-3.1,1.4-4.8,1.6c-0.2,0-0.5,0-0.7,0.1c-0.1,0-0.1,0-0.2,0C69,90.6,68.3,90.6,67.6,90.6z"/>
	<path class="st0" d="M67.4,0c0.2,0.1,0.3,0.1,0.5,0.1c2,0.3,3.7,1.1,5.2,2.5c1.5,1.4,2.5,3,3.2,4.9c0.6,1.5,0.9,3,1.1,4.6
		c0.2,1.6,0.1,3.2-0.1,4.9c-0.3,2.4-1,4.7-2.1,6.9c-0.9,1.9-2.2,3.7-3.7,5.1c-1.4,1.3-2.9,2.4-4.7,3.1c-1.3,0.5-2.7,0.7-4.1,0.6
		c-2.1-0.1-4-0.9-5.6-2.3c-1.2-1-2.1-2.2-2.8-3.6c-0.8-1.6-1.3-3.3-1.6-5.1c-0.2-1.2-0.3-2.4-0.2-3.6c0.1-2.2,0.4-4.3,1.1-6.4
		c0.8-2.3,1.9-4.5,3.4-6.4c1.3-1.6,2.8-3,4.6-3.9c1.1-0.6,2.4-1.1,3.7-1.3c0.2,0,0.4,0,0.6-0.1c0.1,0,0.1,0,0.2,0
		C66.5,0,67,0,67.4,0z"/>
	<path class="st0" d="M0,35.1c0.1-0.1,0.1-0.3,0.1-0.4c0.1-1.3,0.4-2.5,0.8-3.8c0.5-1.4,1.3-2.6,2.3-3.7c1.3-1.3,2.9-2.2,4.7-2.5
		c2.1-0.4,4,0,5.9,0.9c1.4,0.6,2.6,1.5,3.7,2.6c2.7,2.6,4.3,5.7,5.1,9.3c0.2,1.1,0.4,2.2,0.4,3.4c0,2.1-0.3,4.2-1.2,6.1
		c-0.5,1.1-1.1,2.1-2,2.9c-1.3,1.3-2.8,2.1-4.6,2.4c-2,0.4-3.8,0.1-5.6-0.7C8.1,51,6.7,50,5.5,48.9c-1.4-1.4-2.6-3-3.5-4.7
		c-0.9-1.7-1.5-3.6-1.8-5.5c-0.1-0.4-0.1-0.8-0.1-1.2C0,37.2,0,36.9,0,36.7C0,36.1,0,35.6,0,35.1z"/>
	<path class="st0" d="M20.7,14.5c0-2.4,0.4-4.8,1.3-7.1c0.6-1.5,1.4-2.8,2.5-4C25.9,2,27.5,1,29.3,0.6C31.3,0.1,33.1,0.3,35,1
		c1.5,0.6,2.8,1.4,3.9,2.5c1.9,1.8,3.3,4,4.3,6.4c0.7,1.6,1.1,3.3,1.3,5c0.1,0.9,0.2,1.8,0.2,2.7c0,0.9,0,1.7-0.1,2.6
		c-0.3,2.6-1,5-2.5,7.2c-1,1.5-2.3,2.8-3.9,3.7c-1.2,0.7-2.5,1-3.9,1.1c-1.6,0.1-3.1-0.3-4.5-0.9c-1.3-0.6-2.4-1.4-3.4-2.4
		c-1.9-1.8-3.3-4-4.3-6.5c-0.6-1.6-1-3.3-1.3-5c0-0.3-0.1-0.6-0.1-0.9C20.8,15.9,20.7,15.2,20.7,14.5z"/>
	<path class="st0" d="M98.8,34.9c0,0.5,0,1.1,0,1.6c-0.1,2.3-0.7,4.4-1.6,6.5c-0.9,2-2.1,3.8-3.7,5.3c-1.6,1.6-3.4,2.8-5.5,3.6
		c-1.4,0.5-2.9,0.8-4.4,0.7c-2.1-0.1-3.9-0.9-5.4-2.3c-1.5-1.3-2.4-3-2.9-4.9c-0.4-1.5-0.6-3.1-0.5-4.7c0.3-4.3,2-8.1,4.9-11.2
		c1.4-1.5,3.1-2.8,5-3.6c1.3-0.6,2.6-0.9,4-1c1.5-0.1,2.9,0.1,4.2,0.7c1.9,0.8,3.3,2.2,4.3,4c0.7,1.2,1.1,2.5,1.3,3.8
		C98.7,33.9,98.8,34.4,98.8,34.9z"/>
</g>
</svg>
